HIERARCHY
ROOT pelvis
{
	OFFSET 0.00 0.00 0.00
	CHANNELS 6 Xposition Yposition Zposition Xrotation Yrotation Zrotation
	JOINT lfemur
	{
		OFFSET 0.00000 4.04436 0.00000
		CHANNELS 3 Xrotation Yrotation Zrotation
		JOINT ltibia
		{
			OFFSET 0.00000 0.00000 -16.29375
			CHANNELS 3 Xrotation Yrotation Zrotation
			JOINT lfoot
			{
				OFFSET 0.00000 0.00000 -15.07135
				CHANNELS 3 Xrotation Yrotation Zrotation
				JOINT ltoes
				{
					OFFSET 4.08523 0.00000 0.00000
					CHANNELS 3 Xrotation Yrotation Zrotation
				}
			}
		}
	}
	JOINT rfemur
	{
		OFFSET 0.00000 -4.04436 0.00000
		CHANNELS 3 Xrotation Yrotation Zrotation
		JOINT rtibia
		{
			OFFSET 0.00000 0.00000 -16.29375
			CHANNELS 3 Xrotation Yrotation Zrotation
			JOINT rfoot
			{
				OFFSET 0.00000 0.00000 -15.07135
				CHANNELS 3 Xrotation Yrotation Zrotation
				JOINT rtoes
				{
					OFFSET 4.08523 0.00000 0.00000
					CHANNELS 3 Xrotation Yrotation Zrotation
				}
			}
		}
	}
	JOINT thorax
	{
		OFFSET -1.96850 0.00000 3.38723
		CHANNELS 6 Xposition Yposition Zposition Xrotation Yrotation Zrotation
		JOINT head
		{
			OFFSET 0.00000 0.00000 16.93583
			CHANNELS 6 Xposition Yposition Zposition Xrotation Yrotation Zrotation
		}
		JOINT lclavicle
		{
			OFFSET 0.00000 0.00000 14.46426
			CHANNELS 3 Xrotation Yrotation Zrotation
			JOINT lhumerus
			{
				OFFSET 0.00000 6.07503 0.73740
				CHANNELS 3 Xrotation Yrotation Zrotation
				JOINT lradius
				{
					OFFSET 0.00000 0.00000 -10.44175
					CHANNELS 3 Xrotation Yrotation Zrotation
					JOINT lhand
					{
						OFFSET 0.00000 0.00000 -9.67100
						CHANNELS 3 Xrotation Yrotation Zrotation
					}
				}
			}
		}
		JOINT rclavicle
		{
			OFFSET 0.00000 0.00000 14.46426
			CHANNELS 3 Xrotation Yrotation Zrotation
			JOINT rhumerus
			{
				OFFSET 0.00000 -6.07503 0.73740
				CHANNELS 3 Xrotation Yrotation Zrotation
				JOINT rradius
				{
					OFFSET 0.00000 0.00000 -10.44175
					CHANNELS 3 Xrotation Yrotation Zrotation
					JOINT rhand
					{
						OFFSET 0.00000 0.00000 -9.67100
						CHANNELS 3 Xrotation Yrotation Zrotation
					}
				}
			}
		}
	}
}
MOTION
Frames: 7
Frame Time:	0.0333333
 39.7950 13.7076 33.1870 2.8539 0.2304 -90.2503 4.3711 -8.3507 10.9962 -0.0000 15.7902 0.0000 0.0000 17.2053 2.4127 0.0000 -24.6910 -0.0000 -1.3891 -1.8323 -5.0442 -0.0000 9.7214 0.0000 0.0000 13.7793 -14.0430 0.0000 -23.5597 -0.0000 36.8911 15.1160 37.5946 -13.5243 3.9610 28.6349 41.0944 13.2244 53.5152 -15.6209 -22.8481 -17.1697 -7.8745 0.0000 -5.4310 39.7674 -24.3037 42.7804 0.0000 -63.7194 -20.2134 5.1031 3.4489 0.0000 3.8973 0.0000 17.6392 -11.8634 -30.2722 9.0938 0.0000 -89.3068 7.8045 2.7374 -11.6465 -0.0000
 39.7092 13.8084 33.0862 2.6879 -0.1631 -89.4619 4.1610 -9.1798 10.2085 -0.0000 17.3001 0.0000 0.0000 16.3984 2.4559 0.0000 -25.0188 0.0000 -1.5927 -3.5873 -3.8343 -0.0000 13.7269 0.0000 0.0000 11.3763 -16.0746 0.0000 -23.0450 -0.0000 36.9179 15.2238 37.4816 -12.6910 4.3793 26.9471 40.7850 13.3101 53.4912 -15.5912 -22.7272 -15.4104 -9.0937 0.0000 -4.8479 35.2249 -17.3865 37.3383 0.0000 -73.0039 -18.3019 6.2513 3.7027 -0.0000 5.0361 0.0000 16.3878 -13.0901 -23.6399 15.2737 180.0000 -84.7252 -171.6917 3.9370 -11.9514 -0.0000
 39.6392 13.9494 32.8668 1.8328 -0.5896 -88.9460 3.9781 -10.7617 8.5736 -0.0000 21.7065 0.0000 0.0000 14.5590 3.4576 0.0000 -25.7655 -0.0000 -1.9018 -5.7469 -3.0866 -0.0000 19.7784 0.0000 0.0000 8.0679 -17.4316 0.0000 -22.7055 0.0000 37.0629 15.4582 37.2436 -11.4490 5.8194 24.9253 40.4840 13.3409 53.3641 -15.6865 -23.2854 -13.3642 -10.7053 0.0000 -4.4839 30.9517 -10.3307 32.8827 0.0000 -81.6571 -15.9085 6.6014 3.6059 0.0000 6.4488 -0.0000 14.8044 -15.1110 -16.9185 19.9835 180.0000 -79.0682 -172.7476 5.0089 -12.5391 0.0000
 39.5982 14.1028 32.4953 0.5806 -1.0139 -88.8761 3.7628 -13.1180 6.8594 -0.0000 28.4670 0.0000 0.0000 12.2775 5.0055 0.0000 -26.9047 -0.0000 -2.4746 -8.3808 -3.3223 -0.0000 27.3431 0.0000 0.0000 4.6092 -17.4271 0.0000 -22.8977 -0.0000 37.3199 15.8162 36.8389 -9.8722 7.9604 22.9057 40.1772 13.3238 53.0641 -15.7766 -24.3943 -11.1639 -12.7667 -0.0000 -4.6831 27.0754 -3.5725 29.1441 0.0000 -89.0288 -13.4677 6.9432 2.8823 0.0000 8.1192 0.0000 13.0499 -17.4764 -9.9517 21.7120 180.0000 -73.0492 -173.7380 5.7840 -13.1655 0.0000
 39.5823 14.2342 31.9697 -0.8795 -1.4665 -89.3473 3.5776 -15.2936 6.2161 -0.0000 35.4261 0.0000 0.0000 9.6010 6.1173 0.0000 -27.4317 -0.0000 -3.3345 -10.9583 -4.2357 -0.0000 35.0690 0.0000 -0.0000 1.0172 -16.7264 0.0000 -23.0318 -0.0000 37.6356 16.2754 36.2617 -8.3174 10.5825 21.0632 39.8933 13.2808 52.5589 -15.4467 -25.9150 -9.1326 -14.6345 0.0000 -4.7052 23.0948 1.1453 26.0482 180.0000 -86.3594 167.8386 5.7090 1.9252 -0.0000 9.8730 -0.0000 11.3008 -19.9190 -2.9479 19.5223 180.0000 -65.8958 -175.5501 5.3811 -13.7046 0.0000
 39.5850 14.2896 31.3862 -2.9876 -1.8608 -90.1499 3.6185 -15.6771 6.8228 -0.0000 40.6030 0.0000 -0.0000 6.5627 6.5090 0.0000 -27.9520 -0.0000 -4.4059 -12.0860 -5.6643 -0.0000 41.4121 0.0000 0.0000 -2.7161 -15.3095 0.0000 -22.5508 -0.0000 38.0338 16.7344 35.6037 -6.7251 13.7400 19.0781 39.5989 13.2108 51.9639 -14.8845 -27.4881 -7.1985 -15.7520 0.0000 -4.9170 18.8367 4.3477 24.1648 180.0000 -85.0420 170.0386 4.4962 0.8105 0.0000 11.4450 -0.0000 9.6210 -21.5873 2.8471 12.7470 -180.0000 -57.7916 -179.4846 4.2983 -13.5262 -0.0000
 39.5742 14.2781 30.9431 -5.7323 -1.7785 -90.9157 4.1383 -14.2585 7.6010 -0.0000 43.8061 0.0000 0.0000 4.2098 6.4747 0.0000 -28.6875 -0.0000 -4.7810 -11.1699 -6.3341 -0.0000 45.1649 0.0000 0.0000 -5.5446 -14.2800 0.0000 -21.6797 -0.0000 38.4968 17.1763 35.0992 -4.6923 17.4837 16.0845 39.2790 13.1249 51.5192 -14.4092 -29.1878 -5.2206 -15.3840 0.0000 -5.0731 14.5817 6.0393 23.4391 180.0000 -87.9312 172.7379 4.0334 1.2118 0.0000 12.4174 -0.0000 8.1219 -21.8318 4.0373 1.4731 -180.0000 -49.9887 175.3322 3.7505 -12.4742 0.0000
